<svg width="160" height="160" viewBox="0 0 160 160" fill="none" xmlns="http://www.w3.org/2000/svg">
<rect x="1.5" y="1.5" width="157" height="157" rx="8.5" fill="#4F46E5" stroke="white" stroke-width="3"/>
<rect x="19.3207" y="34.2029" width="120.755" height="8.69565" rx="3" fill="white"/>
<rect x="19" y="75.3623" width="120.755" height="8.69565" rx="3" fill="white"/>
<rect x="72" y="117" width="68" height="8" rx="3" fill="white"/>
<path d="M41.2588 103.988C52.2682 103.988 61.0186 112.532 61.0186 122.86C61.0185 133.188 52.2682 141.732 41.2588 141.732C30.2495 141.732 21.5001 133.188 21.5 122.86C21.5 112.532 30.2495 103.988 41.2588 103.988Z" stroke="#FFFCFC" stroke-width="5"/>
<path d="M30 119.836C30.6421 120.236 36.1565 125.749 39.2005 128.972C39.3694 129.15 39.6223 128.527 41.7113 125.959C43.8004 123.39 47.7996 118.709 53.173 113.677C58.5464 108.644 65.1728 103.402 72 98" stroke="white" stroke-width="5" stroke-linecap="round"/>
</svg>
